<mxfile host="drawio-plugin" modified="2024-07-18T07:13:26.298Z" agent="Mozilla/5.0 (Windows NT 10.0; Win64; x64) AppleWebKit/537.36 (KHTML, like Gecko) Chrome/122.0.0.0 Safari/537.36" etag="XkFxKe9m5ZDelpRVft2B" version="22.1.22" type="embed">
  <diagram name="Page-1" id="c4acf3e9-155e-7222-9cf6-157b1a14988f">
    <mxGraphModel dx="2218" dy="715" grid="1" gridSize="10" guides="1" tooltips="1" connect="1" arrows="1" fold="1" page="1" pageScale="1" pageWidth="850" pageHeight="1100" background="none" math="0" shadow="0">
      <root>
        <mxCell id="0" />
        <mxCell id="1" parent="0" />
        <mxCell id="12" value="&lt;p style=&quot;margin: 4px 0px 0px; text-align: center; font-size: 14px;&quot;&gt;&lt;font style=&quot;font-size: 14px;&quot;&gt;&lt;i style=&quot;&quot;&gt;&amp;lt;&amp;lt;Class&amp;gt;&amp;gt;&lt;/i&gt;&lt;br&gt;&lt;/font&gt;&lt;/p&gt;&lt;div style=&quot;text-align: center;&quot;&gt;&lt;b&gt;UserAccount&lt;/b&gt;&lt;br&gt;&lt;/div&gt;&lt;hr style=&quot;font-size: 14px;&quot; size=&quot;1&quot;&gt;&lt;p style=&quot;margin: 0px 0px 0px 4px; font-size: 14px;&quot;&gt;&lt;span style=&quot;background-color: initial; font-size: 12px;&quot;&gt;- id: UUID&lt;/span&gt;&lt;br&gt;&lt;/p&gt;&lt;p style=&quot;margin: 0px 0px 0px 4px;&quot;&gt;&lt;span style=&quot;font-size: 14px;&quot;&gt;- username: String&lt;/span&gt;&lt;/p&gt;&lt;p style=&quot;margin: 0px 0px 0px 4px;&quot;&gt;&lt;span style=&quot;font-size: 14px;&quot;&gt;- accountType: AccountType&lt;/span&gt;&lt;/p&gt;&lt;p style=&quot;margin: 0px 0px 0px 4px;&quot;&gt;&lt;span style=&quot;font-size: 14px;&quot;&gt;- balance: double&lt;/span&gt;&lt;/p&gt;&lt;p style=&quot;margin: 0px 0px 0px 4px;&quot;&gt;&lt;/p&gt;&lt;p style=&quot;margin: 0px 0px 0px 4px;&quot;&gt;&lt;span style=&quot;font-size: 14px;&quot;&gt;- balance_bigger_than_minimal: boolean&lt;/span&gt;&lt;/p&gt;&lt;hr style=&quot;font-size: 14px;&quot; size=&quot;1&quot;&gt;&lt;p style=&quot;margin: 0px 0px 0px 4px;&quot;&gt;&lt;span style=&quot;background-color: initial; font-size: 14px;&quot;&gt;&amp;nbsp;&lt;/span&gt;+ UserAccount(username: String, accountType: AccountType, initialBalance: double)&lt;/p&gt;&lt;p style=&quot;margin: 0px 0px 0px 4px;&quot;&gt;&lt;span style=&quot;font-size: 14px;&quot;&gt;&amp;nbsp; + displayAccountDetails(): void&lt;/span&gt;&lt;/p&gt;&lt;p style=&quot;margin: 0px 0px 0px 4px;&quot;&gt;&lt;span style=&quot;font-size: 14px;&quot;&gt;&amp;nbsp; + isBalance_bigger_than_minimal(): boolean&lt;/span&gt;&lt;/p&gt;&lt;p style=&quot;margin: 0px 0px 0px 4px;&quot;&gt;&lt;span style=&quot;font-size: 14px;&quot;&gt;&amp;nbsp; + setBalance_bigger_than_minimal(balance_bigger_than_minimal: boolean): void&lt;/span&gt;&lt;/p&gt;&lt;p style=&quot;margin: 0px 0px 0px 4px;&quot;&gt;&lt;span style=&quot;font-size: 14px;&quot;&gt;&amp;nbsp; + getBalance(): double&lt;/span&gt;&lt;/p&gt;" style="verticalAlign=top;align=left;overflow=fill;fontSize=12;fontFamily=Helvetica;html=1;rounded=0;shadow=0;comic=0;labelBackgroundColor=none;strokeWidth=1" parent="1" vertex="1">
          <mxGeometry x="-240" y="190" width="470" height="240" as="geometry" />
        </mxCell>
        <mxCell id="13" value="&lt;p style=&quot;margin: 4px 0px 0px; text-align: center; font-size: 14px;&quot;&gt;&lt;font style=&quot;font-size: 14px;&quot;&gt;&lt;i style=&quot;&quot;&gt;&amp;lt;&amp;lt;Class&amp;gt;&amp;gt;&lt;/i&gt;&lt;br&gt;&lt;b style=&quot;&quot;&gt;Main&lt;/b&gt;&lt;br&gt;&lt;/font&gt;&lt;/p&gt;&lt;hr style=&quot;font-size: 14px;&quot; size=&quot;1&quot;&gt;&lt;p style=&quot;margin: 0px 0px 0px 4px; font-size: 14px;&quot;&gt;&lt;font style=&quot;font-size: 14px;&quot;&gt;+ main(String[]): void&lt;/font&gt;&lt;br&gt;&lt;/p&gt;" style="verticalAlign=top;align=left;overflow=fill;fontSize=12;fontFamily=Helvetica;html=1;rounded=0;shadow=0;comic=0;labelBackgroundColor=none;strokeWidth=1" parent="1" vertex="1">
          <mxGeometry x="180" y="40" width="140" height="80" as="geometry" />
        </mxCell>
        <mxCell id="14" value="&lt;p style=&quot;margin: 4px 0px 0px; text-align: center; font-size: 14px;&quot;&gt;&lt;font style=&quot;font-size: 14px;&quot;&gt;&lt;i style=&quot;&quot;&gt;&amp;lt;&amp;lt;Interface&amp;gt;&amp;gt;&lt;/i&gt;&lt;/font&gt;&lt;/p&gt;&lt;p style=&quot;margin: 4px 0px 0px; text-align: center;&quot;&gt;&lt;i&gt;&lt;font style=&quot;font-size: 13px;&quot;&gt;&lt;b&gt;AccountType&lt;/b&gt;&lt;/font&gt;&lt;/i&gt;&lt;br&gt;&lt;/p&gt;&lt;hr style=&quot;font-size: 14px;&quot; size=&quot;1&quot;&gt;&lt;p style=&quot;margin: 0px 0px 0px 4px; font-size: 14px;&quot;&gt;&lt;font style=&quot;font-size: 14px;&quot;&gt;+ displayInfo(): void&lt;/font&gt;&lt;br&gt;&lt;/p&gt;" style="verticalAlign=top;align=left;overflow=fill;fontSize=12;fontFamily=Helvetica;html=1;rounded=0;shadow=0;comic=0;labelBackgroundColor=none;strokeWidth=1" parent="1" vertex="1">
          <mxGeometry x="420" y="450" width="140" height="80" as="geometry" />
        </mxCell>
        <mxCell id="53" value="" style="endArrow=open;endSize=12;dashed=1;html=1;rounded=0;exitX=0.25;exitY=1;exitDx=0;exitDy=0;entryX=0.75;entryY=0;entryDx=0;entryDy=0;" edge="1" parent="1" source="13" target="12">
          <mxGeometry width="160" relative="1" as="geometry">
            <mxPoint x="-310" y="80" as="sourcePoint" />
            <mxPoint x="-450" y="510" as="targetPoint" />
            <Array as="points" />
          </mxGeometry>
        </mxCell>
        <mxCell id="54" value="implements" style="endArrow=block;dashed=1;endFill=0;endSize=12;html=1;rounded=0;entryX=0.75;entryY=1;entryDx=0;entryDy=0;exitX=0.457;exitY=0;exitDx=0;exitDy=0;exitPerimeter=0;" edge="1" parent="1" source="55" target="14">
          <mxGeometry width="160" relative="1" as="geometry">
            <mxPoint x="-476" y="280" as="sourcePoint" />
            <mxPoint x="-373" y="200" as="targetPoint" />
          </mxGeometry>
        </mxCell>
        <mxCell id="55" value="&lt;p style=&quot;margin: 4px 0px 0px; text-align: center; font-size: 14px;&quot;&gt;&lt;font style=&quot;font-size: 14px;&quot;&gt;&lt;i style=&quot;&quot;&gt;&amp;lt;&amp;lt;Class&amp;gt;&amp;gt;&lt;/i&gt;&lt;br&gt;&lt;/font&gt;&lt;/p&gt;&lt;div style=&quot;text-align: center;&quot;&gt;&lt;b&gt;Account&lt;/b&gt;&lt;br&gt;&lt;/div&gt;&lt;hr style=&quot;font-size: 14px;&quot; size=&quot;1&quot;&gt;&lt;p style=&quot;margin: 0px 0px 0px 4px; font-size: 14px;&quot;&gt;&lt;span style=&quot;background-color: initial; font-size: 12px;&quot;&gt;- accountTypeName: String&lt;/span&gt;&lt;br&gt;&lt;/p&gt;&lt;p style=&quot;margin: 0px 0px 0px 4px;&quot;&gt;&lt;span style=&quot;font-size: 14px;&quot;&gt;- interestRate: double&lt;/span&gt;&lt;/p&gt;&lt;p style=&quot;margin: 0px 0px 0px 4px;&quot;&gt;&lt;/p&gt;&lt;p style=&quot;margin: 0px 0px 0px 4px;&quot;&gt;&lt;span style=&quot;font-size: 14px;&quot;&gt;- minimumBalance: double&lt;/span&gt;&lt;/p&gt;&lt;hr style=&quot;font-size: 14px;&quot; size=&quot;1&quot;&gt;&lt;p style=&quot;margin: 0px 0px 0px 4px;&quot;&gt;+ Account(accountTypeName: String, interestRate: double, minimumBalance: double)&lt;/p&gt;&lt;p style=&quot;margin: 0px 0px 0px 4px;&quot;&gt;+ displayInfo(): void&lt;/p&gt;" style="verticalAlign=top;align=left;overflow=fill;fontSize=12;fontFamily=Helvetica;html=1;rounded=0;shadow=0;comic=0;labelBackgroundColor=none;strokeWidth=1" vertex="1" parent="1">
          <mxGeometry x="350" y="670" width="460" height="150" as="geometry" />
        </mxCell>
        <mxCell id="56" value="&lt;p style=&quot;margin: 4px 0px 0px; text-align: center; font-size: 14px;&quot;&gt;&lt;font style=&quot;font-size: 14px;&quot;&gt;&lt;i style=&quot;&quot;&gt;&amp;lt;&amp;lt;Class&amp;gt;&amp;gt;&lt;/i&gt;&lt;br&gt;&lt;/font&gt;&lt;/p&gt;&lt;div style=&quot;text-align: center;&quot;&gt;&lt;b&gt;AccountFlyweightFactory&amp;nbsp;&lt;/b&gt;&lt;br&gt;&lt;/div&gt;&lt;hr style=&quot;font-size: 14px;&quot; size=&quot;1&quot;&gt;&lt;p style=&quot;margin: 0px 0px 0px 4px; font-size: 14px;&quot;&gt;&lt;font style=&quot;font-size: 14px;&quot;&gt;- accounts: Map&amp;lt;String, AccountType&amp;gt;&lt;br&gt;&lt;/font&gt;&lt;/p&gt;&lt;hr style=&quot;font-size: 14px;&quot; size=&quot;1&quot;&gt;&lt;p style=&quot;margin: 0px 0px 0px 4px;&quot;&gt;accountType(accountTypeName: String, interestRate: double, minimumBalance: Double): AccountType&lt;br&gt;&lt;/p&gt;" style="verticalAlign=top;align=left;overflow=fill;fontSize=12;fontFamily=Helvetica;html=1;rounded=0;shadow=0;comic=0;labelBackgroundColor=none;strokeWidth=1" vertex="1" parent="1">
          <mxGeometry x="280" y="200" width="560" height="100" as="geometry" />
        </mxCell>
        <mxCell id="57" value="" style="endArrow=open;endSize=12;dashed=1;html=1;rounded=0;exitX=0.75;exitY=1;exitDx=0;exitDy=0;entryX=0.438;entryY=-0.02;entryDx=0;entryDy=0;entryPerimeter=0;" edge="1" parent="1" source="13" target="56">
          <mxGeometry width="160" relative="1" as="geometry">
            <mxPoint x="225" y="130" as="sourcePoint" />
            <mxPoint x="123" y="200" as="targetPoint" />
            <Array as="points" />
          </mxGeometry>
        </mxCell>
        <mxCell id="58" value="" style="endArrow=open;endSize=12;dashed=1;html=1;rounded=0;exitX=0.5;exitY=1;exitDx=0;exitDy=0;entryX=0.5;entryY=0;entryDx=0;entryDy=0;" edge="1" parent="1" source="56" target="14">
          <mxGeometry width="160" relative="1" as="geometry">
            <mxPoint x="295" y="130" as="sourcePoint" />
            <mxPoint x="535" y="208" as="targetPoint" />
            <Array as="points" />
          </mxGeometry>
        </mxCell>
        <mxCell id="59" value="" style="endArrow=open;endSize=12;dashed=1;html=1;rounded=0;exitX=0.75;exitY=1;exitDx=0;exitDy=0;entryX=0.5;entryY=0;entryDx=0;entryDy=0;" edge="1" parent="1" source="56" target="55">
          <mxGeometry width="160" relative="1" as="geometry">
            <mxPoint x="570" y="310" as="sourcePoint" />
            <mxPoint x="500" y="460" as="targetPoint" />
            <Array as="points">
              <mxPoint x="690" y="500" />
            </Array>
          </mxGeometry>
        </mxCell>
        <mxCell id="60" value="" style="endArrow=diamondThin;endFill=0;endSize=24;html=1;rounded=0;entryX=1.004;entryY=0.975;entryDx=0;entryDy=0;entryPerimeter=0;exitX=0;exitY=0.5;exitDx=0;exitDy=0;" edge="1" parent="1" source="14" target="12">
          <mxGeometry width="160" relative="1" as="geometry">
            <mxPoint x="40" y="490" as="sourcePoint" />
            <mxPoint x="200" y="490" as="targetPoint" />
          </mxGeometry>
        </mxCell>
      </root>
    </mxGraphModel>
  </diagram>
</mxfile>
